<svg xmlns="http://www.w3.org/2000/svg" xmlns:xlink="http://www.w3.org/1999/xlink" width="350" height="115" viewBox="0 0 350 115"><defs><style>.a,.b{fill:;}.b{opacity:0.1;}.c{fill:#fff;}.d{fill:#2843b4;}.e,.f{opacity:0.03;}.e{clip-path:url(#c);}.f{clip-path:url(#d);}.g{opacity:0.04;clip-path:url(#e);}.h{filter:url(#a);}</style><filter id="a" x="0" y="0" width="350" height="115" filterUnits="userSpaceOnUse"><feOffset dy="1" input="SourceAlpha"/><feGaussianBlur stdDeviation="2.5" result="b"/><feFlood flood-color="#3f3f44" flood-opacity="0.098"/><feComposite operator="in" in2="b"/><feComposite in="SourceGraphic"/></filter><clipPath id="c"><rect class="a" width="35" height="16" rx="4"/></clipPath><clipPath id="d"><rect class="a" width="51" height="40" rx="4"/></clipPath><clipPath id="e"><rect class="b" width="41" height="32" rx="4"/></clipPath></defs><g transform="translate(7.5 6.5)"><g class="h" transform="matrix(1, 0, 0, 1, -7.5, -6.5)"><rect class="c" width="335" height="100" rx="4" transform="translate(7.5 6.5)"/></g><path class="d" d="M0,0H335a0,0,0,0,1,0,0V0a2,2,0,0,1-2,2H2A2,2,0,0,1,0,0V0A0,0,0,0,1,0,0Z" transform="translate(0 98)"/><g class="e" transform="translate(65)"><path class="a" d="M25.666,0a1,1,0,0,1,.871.508l8.185,14.5a1,1,0,0,1,0,.983l-8.185,14.5a1,1,0,0,1-.871.508H9.334a1,1,0,0,1-.871-.508L.278,15.992a1,1,0,0,1,0-.983L8.463.508A1,1,0,0,1,9.334,0Z" transform="translate(0 -15)"/></g><g transform="translate(284 60)"><g class="f"><path class="a" d="M38.417,0a1,1,0,0,1,.871.508l12.435,22a1,1,0,0,1,0,.984l-12.435,22a1,1,0,0,1-.871.508H13.583a1,1,0,0,1-.871-.508l-12.435-22a1,1,0,0,1,0-.984l12.435-22A1,1,0,0,1,13.583,0Z" transform="translate(7 7)"/></g><g class="g" transform="translate(10 8)"><path class="a" d="M30.926,0a1,1,0,0,1,.864.5l9.917,17a1,1,0,0,1,0,1.008l-9.917,17a1,1,0,0,1-.864.5H11.074a1,1,0,0,1-.864-.5L.294,18.5a1,1,0,0,1,0-1.008L10.211.5a1,1,0,0,1,.864-.5Z" transform="translate(4 6)"/></g></g></g></svg>