<svg xmlns="http://www.w3.org/2000/svg" width="37.495" height="37.495" viewBox="0 0 37.495 37.495"><defs><style>.a{fill:;}</style></defs><path class="a" d="M37.239,28.827a5.567,5.567,0,0,0-6.647-.937l-3.579,1.7a9.514,9.514,0,0,1-3.153.767,4.381,4.381,0,0,0,.852-2.556,1.709,1.709,0,0,0-1.7-1.7H14.146a7.584,7.584,0,0,0-5.795,2.642L5.369,32.15a2.281,2.281,0,0,0-1.96-1.023H.852a.852.852,0,0,0,0,1.7H3.409a.805.805,0,0,1,.852.852V38.8a.805.805,0,0,1-.852.852H.852a.852.852,0,1,0,0,1.7H3.409a2.482,2.482,0,0,0,2.386-1.7h4.687a5.24,5.24,0,0,0,1.193-.085L23.69,38.2a11.647,11.647,0,0,0,5.454-2.13l8.01-5.965a.863.863,0,0,0,.341-.6A.968.968,0,0,0,37.239,28.827Zm-9.118,5.88a9.026,9.026,0,0,1-4.6,1.79L11.5,37.86c-.341,0-.682.085-1.023.085H5.965v-3.92l3.749-4.261a5.938,5.938,0,0,1,4.516-2.045h8.777a2.511,2.511,0,0,1-2.556,2.556H15.339a.852.852,0,1,0,0,1.7H23.6a9.591,9.591,0,0,0,4.09-.937l3.664-1.7a3.81,3.81,0,0,1,3.92.085Z" transform="translate(0 -3.859)"/><path class="a" d="M20.113,22.226A5.113,5.113,0,1,0,15,17.113,5.128,5.128,0,0,0,20.113,22.226Zm0-8.522A3.409,3.409,0,1,1,16.7,17.113,3.419,3.419,0,0,1,20.113,13.7Z" transform="translate(-2.218 -1.774)"/><path class="a" d="M33.261,16.522A4.261,4.261,0,1,0,29,12.261,4.219,4.219,0,0,0,33.261,16.522Zm0-6.817A2.556,2.556,0,1,1,30.7,12.261,2.511,2.511,0,0,1,33.261,9.7Z" transform="translate(-4.287 -1.183)"/><path class="a" d="M23.409,6.817A3.409,3.409,0,1,0,20,3.409,3.419,3.419,0,0,0,23.409,6.817Zm0-5.113a1.7,1.7,0,1,1-1.7,1.7A1.709,1.709,0,0,1,23.409,1.7Z" transform="translate(-2.957)"/></svg>