<svg xmlns="http://www.w3.org/2000/svg" width="41.662" height="34.087" viewBox="0 0 41.662 34.087"><defs><style>.a{fill:#cb6aff;}</style></defs><path class="a" d="M40.715,38H.947a.947.947,0,1,0,0,1.894H40.715a.947.947,0,1,0,0-1.894Z" transform="translate(0 -5.807)"/><path class="a" d="M.947,34.3h.947a2.79,2.79,0,0,0,2.841-2.841V21.99a.9.9,0,0,1,.947-.947H7.575a.9.9,0,0,1,.947.947v9.469a2.841,2.841,0,0,0,5.681,0V14.415a.9.9,0,0,1,.947-.947h1.894a.9.9,0,0,1,.947.947V31.459a2.841,2.841,0,0,0,5.681,0V6.841a.9.9,0,0,1,.947-.947h1.894a.9.9,0,0,1,.947.947V31.459a2.841,2.841,0,1,0,5.681,0V18.2a.9.9,0,0,1,.947-.947h1.894a.9.9,0,0,1,.947.947V31.459A2.79,2.79,0,0,0,39.768,34.3h.947a.947.947,0,1,0,0-1.894h-.947a.9.9,0,0,1-.947-.947V18.2a2.79,2.79,0,0,0-2.841-2.841H34.087A2.79,2.79,0,0,0,31.246,18.2V31.459a.947.947,0,0,1-1.894,0V6.841A2.79,2.79,0,0,0,26.512,4H24.618a2.79,2.79,0,0,0-2.841,2.841V31.459a.947.947,0,0,1-1.894,0V14.415a2.79,2.79,0,0,0-2.841-2.841H15.15a2.79,2.79,0,0,0-2.841,2.841V31.459a.947.947,0,0,1-1.894,0V21.99A2.79,2.79,0,0,0,7.575,19.15H5.681A2.79,2.79,0,0,0,2.841,21.99v9.469a.9.9,0,0,1-.947.947H.947a.947.947,0,0,0,0,1.894Z" transform="translate(0 -4)"/></svg>