<svg xmlns="http://www.w3.org/2000/svg" width="41.662" height="39.768" viewBox="0 0 41.662 39.768"><defs><style>.a{fill:#cb6aff;}</style></defs><path class="a" d="M34.841,25A2.79,2.79,0,0,0,32,27.841v2.841a3.787,3.787,0,1,0,7.575,0V27.841A2.79,2.79,0,0,0,36.734,25Zm2.841,2.841v2.841a1.894,1.894,0,1,1-3.787,0V27.841a.9.9,0,0,1,.947-.947h1.894A.9.9,0,0,1,37.681,27.841Z" transform="translate(-1.701 -2.275)"/><path class="a" d="M21.787,10.469a3.8,3.8,0,0,0,3.787-3.787V3.841A2.79,2.79,0,0,0,22.734,1H20.841A2.79,2.79,0,0,0,18,3.841V6.681A3.8,3.8,0,0,0,21.787,10.469ZM19.894,3.841a.9.9,0,0,1,.947-.947h1.894a.9.9,0,0,1,.947.947V6.681a1.894,1.894,0,1,1-3.787,0Z" transform="translate(-0.957 -1)"/><path class="a" d="M7.787,34.469a3.8,3.8,0,0,0,3.787-3.787V27.841A2.79,2.79,0,0,0,8.734,25H6.841A2.79,2.79,0,0,0,4,27.841v2.841A3.8,3.8,0,0,0,7.787,34.469ZM5.894,27.841a.9.9,0,0,1,.947-.947H8.734a.9.9,0,0,1,.947.947v2.841a1.894,1.894,0,1,1-3.787,0Z" transform="translate(-0.213 -2.275)"/><path class="a" d="M14.947,18.681h9.469a.947.947,0,1,0,0-1.894H16.083a2.758,2.758,0,0,1,2.651-1.894h5.681a2.79,2.79,0,0,1,2.841,2.841.947.947,0,1,0,1.894,0A4.688,4.688,0,0,0,24.415,13H18.734A4.688,4.688,0,0,0,14,17.734.9.9,0,0,0,14.947,18.681Z" transform="translate(-0.744 -1.638)"/><path class="a" d="M38.415,37H32.734A4.688,4.688,0,0,0,28,41.734a.9.9,0,0,0,.947.947h9.469a.947.947,0,0,0,0-1.894H30.083a2.758,2.758,0,0,1,2.651-1.894h5.681a2.79,2.79,0,0,1,2.841,2.841.947.947,0,1,0,1.894,0A4.688,4.688,0,0,0,38.415,37Z" transform="translate(-1.488 -2.913)"/><path class="a" d="M10.415,37H4.734A4.688,4.688,0,0,0,0,41.734a.9.9,0,0,0,.947.947h9.469a.947.947,0,0,0,0-1.894H2.083a2.758,2.758,0,0,1,2.651-1.894h5.681a2.79,2.79,0,0,1,2.841,2.841.947.947,0,0,0,1.894,0A4.688,4.688,0,0,0,10.415,37Z" transform="translate(0 -2.913)"/><path class="a" d="M29.044,33.649a.958.958,0,0,0-1.326-.379,13.821,13.821,0,0,1-10.794.757L19.1,32.8a.975.975,0,1,0-.947-1.7l-3.882,2.083a1,1,0,0,0,0,1.7,15.494,15.494,0,0,0,7.1,1.8,15.494,15.494,0,0,0,7.1-1.8A.807.807,0,0,0,29.044,33.649Z" transform="translate(-0.733 -2.592)"/><path class="a" d="M35.556,18.391l-1.231-.852a.959.959,0,0,0-1.042,1.61l2.841,1.894a1.346,1.346,0,0,0,.568.189.854.854,0,0,0,.473-.095.994.994,0,0,0,.473-.852A15.2,15.2,0,0,0,30.917,7.691.959.959,0,0,0,29.875,9.3,13.575,13.575,0,0,1,35.556,18.391Z" transform="translate(-1.564 -1.347)"/><path class="a" d="M6.947,21.237a.9.9,0,0,0,.947-.947,13.5,13.5,0,0,1,4.545-10.037l.189,1.61a1.109,1.109,0,0,0,1.042.852,1.109,1.109,0,0,0,.852-1.042l-.379-3.219a.94.94,0,0,0-.568-.757,1.12,1.12,0,0,0-.947.095A14.949,14.949,0,0,0,6,20.29.9.9,0,0,0,6.947,21.237Z" transform="translate(-0.319 -1.353)"/></svg>