<svg xmlns="http://www.w3.org/2000/svg" width="24.618" height="41.662" viewBox="0 0 24.618 41.662"><defs><style>.a{fill:#cb6aff;}</style></defs><ellipse class="a" cx="0.5" cy="1" rx="0.5" ry="1" transform="translate(11.599 26)"/><path class="a" d="M29.547,15.623A6.459,6.459,0,0,0,31.725,10.7V5.681h.947a.9.9,0,0,0,.947-.947V.947A.9.9,0,0,0,32.671,0H9.947A.9.9,0,0,0,9,.947V4.734a.9.9,0,0,0,.947.947h.947V10.7a6.8,6.8,0,0,0,2.178,4.924l5.018,4.45a1.023,1.023,0,0,1,.284.663c0,.189-.095.568-.284.663l-5.018,4.45a6.459,6.459,0,0,0-2.178,4.924v5.208H9.947A.9.9,0,0,0,9,36.927v3.787a.9.9,0,0,0,.947.947H32.671a.9.9,0,0,0,.947-.947V36.927a.9.9,0,0,0-.947-.947h-.947V30.962a6.8,6.8,0,0,0-2.178-4.924l-5.018-4.45a.861.861,0,0,1-.379-.757.737.737,0,0,1,.284-.663ZM23.2,22.914l5.018,4.45a4.545,4.545,0,0,1,1.61,3.5v5.113H16.575a.947.947,0,1,0,0,1.894h15.15v1.894H10.894V37.874h.947a.9.9,0,0,0,.947-.947V30.962a4.545,4.545,0,0,1,1.61-3.5l5.018-4.45a3.041,3.041,0,0,0,.947-2.083,2.868,2.868,0,0,0-.947-2.083L14.4,14.2a4.545,4.545,0,0,1-1.61-3.5V5.681H26.043a.9.9,0,0,0,.947-.947.9.9,0,0,0-.947-.947H10.894V1.894H31.725V3.787h-.947a.9.9,0,0,0-.947.947V10.7a4.545,4.545,0,0,1-1.61,3.5L23.2,18.748a3.041,3.041,0,0,0-.947,2.083A2.868,2.868,0,0,0,23.2,22.914Z" transform="translate(-9)"/><path class="a" d="M28.256,12.947A.9.9,0,0,0,27.309,12H15.947a.947.947,0,0,0,0,1.894H27.309A.9.9,0,0,0,28.256,12.947Z" transform="translate(-9.319 -0.638)"/><path class="a" d="M21.346,32.1,15.665,33.99a.959.959,0,1,0,.663,1.8l5.4-1.8,5.4,1.8c.095,0,.189.095.284.095a.909.909,0,0,0,.852-.663.985.985,0,0,0-.568-1.231L22.009,32.1A.8.8,0,0,0,21.346,32.1Z" transform="translate(-9.321 -1.702)"/></svg>