<svg xmlns="http://www.w3.org/2000/svg" width="22.144" height="19.689" viewBox="0 0 22.144 19.689"><defs><style>.a{fill:none;stroke:#8e8e8e;stroke-linecap:round;stroke-linejoin:round;stroke-width:2px;}</style></defs><g transform="translate(-2668.977 -1197.406)"><circle class="a" cx="3.853" cy="3.853" r="3.853" transform="translate(2679.539 1202.517)"/><path class="a" d="M2695.941,1226.57h0a5.871,5.871,0,0,0-5.872-5.871h-1.835a5.871,5.871,0,0,0-5.872,5.871h0" transform="translate(-5.82 -10.475)"/><circle class="a" cx="2.965" cy="2.965" r="2.965" transform="translate(2672.282 1198.406)"/><path class="a" d="M2675.908,1209.593H2674.5a4.518,4.518,0,0,0-4.518,4.518h0" transform="translate(0 -5.257)"/><path class="a" d="M2677.563,1209.593h1.412a4.507,4.507,0,0,1,3.432,1.58" transform="translate(-3.565 -5.257)"/></g></svg>