<?xml version="1.0" encoding="utf-8"?>
<!-- Svg Vector Icons : http://www.onlinewebfonts.com/icon -->
<!DOCTYPE svg PUBLIC "-//W3C//DTD SVG 1.1//EN" "http://www.w3.org/Graphics/SVG/1.1/DTD/svg11.dtd">
<svg version="1.1" xmlns="http://www.w3.org/2000/svg" xmlns:xlink="http://www.w3.org/1999/xlink" fill="#8e8e8e" height="18px" width="18px" x="0px" y="0px" viewBox="0 0 1000 1000" enable-background="new 0 0 1000 1000" xml:space="preserve">
<metadata> Svg Vector Icons : http://www.onlinewebfonts.com/icon </metadata>
<g><g transform="translate(0.000000,512.000000) scale(0.100000,-0.100000)"><path d="M4576.5,5014.9c-306-36.6-419.6-53.9-587.1-88.5C2551.7,4631.9,1337.2,3723.4,653.9,2428c-256-483.1-425.4-1006.7-517.8-1597.6C88,516.7,88-280.1,136.1-593.9c173.2-1097.1,633.3-2021,1382-2769.8c748.7-748.7,1672.6-1208.8,2769.7-1382c313.7-48.1,1110.6-48.1,1424.3,0c1093.3,171.3,2019.1,633.3,2769.8,1382c748.7,750.7,1210.7,1676.5,1382,2769.8c48.1,313.7,48.1,1110.6,0,1424.3c-171.3,1095.2-635.2,2022.9-1382,2769.7C7739,4345.1,6809.3,4809,5731.4,4978.4C5537,5009.2,4738.2,5034.2,4576.5,5014.9z M5571.7,4612.7c398.4-52,789.2-159.8,1197.2-331.1c157.8-65.4,419.6-194.4,460-227.1c3.8-3.8-148.2-236.7-334.9-519.7c-248.3-371.5-350.3-510.1-373.4-502.4c-15.4,3.8-109.7,44.3-207.9,86.6c-810.3,358-1815.1,358-2625.4,0c-98.2-42.3-192.5-82.8-207.9-86.6c-23.1-7.7-125.1,130.9-373.4,502.4c-186.7,282.9-338.8,515.8-334.9,519.7c38.5,32.7,340.7,180.9,513.9,250.2c383,157.8,741,254.1,1127.9,306C4682.4,4647.3,5290.7,4649.2,5571.7,4612.7z M2757.6,3321.1c180.9-271.4,329.2-500.4,333-508.1c3.9-7.7-53.9-59.7-125.1-117.4c-194.4-150.1-359.9-313.7-512-504.3c-73.1-92.4-140.5-165.5-148.2-163.6c-53.9,21.2-1000.9,664-1000.9,681.4c0,36.6,269.5,359.9,477.3,571.6c204,207.9,589,533.2,627.5,533.2C2420.8,3813.9,2578.6,3590.6,2757.6,3321.1z M7812.1,3652.2c109.7-88.5,292.6-256,406.1-371.5c207.9-211.7,477.3-535.1,477.3-571.6c0-11.6-227.1-171.3-504.3-356.1L7687,2018.1l-59.7,73.1c-206,263.7-388.8,444.6-654.4,654.4l-73.1,59.7l334.9,504.3c184.8,277.2,344.5,504.3,356.1,504.3C7602.3,3813.9,7700.5,3740.7,7812.1,3652.2z M5571.7,2949.7c546.6-119.3,1039.4-386.9,1439.7-781.5c565.9-556.3,875.8-1280,875.8-2049.9c0-1570.6-1316.6-2887.2-2887.2-2887.2c-1347.3,0-2538.8,973.9-2831.3,2315.5c-50.1,229.1-69.3,677.5-38.5,908.5c86.6,652.5,367.6,1220.3,839.2,1693.8c454.3,454.2,983.6,725.6,1616.8,829.6C4811.4,3015.1,5342.6,2999.7,5571.7,2949.7z M1585.5,2010.4c369.5-246.4,508.1-348.4,500.4-371.5c-3.9-15.4-44.3-109.7-86.6-207.9c-358-810.3-358-1815.1,0-2625.4c42.3-98.2,82.8-192.5,86.6-207.9c7.7-23.1-130.9-125.1-502.4-373.4c-282.9-186.7-515.8-338.8-519.7-334.9c-32.7,40.4-161.7,302.2-227.1,460c-256,608.2-359.9,1124.1-359.9,1768.9c0,633.3,98.2,1131.8,336.8,1715c77,186.7,238.7,517.8,256,517.8C1071.5,2351,1304.4,2197.1,1585.5,2010.4z M9017,2200.9c44.3-80.8,119.3-242.5,165.5-359.9c246.4-606.3,340.7-1087.5,340.7-1722.7c0-660.2-117.4-1220.3-385-1830.5c-63.5-142.4-173.2-358-204-398.4c-1.9-3.8-234.8,148.2-517.8,334.9c-371.5,248.3-510.1,350.3-502.4,373.4c3.8,15.4,44.3,109.7,86.6,207.9c354.2,804.6,354.2,1824.7,0,2625.4c-42.4,98.2-80.8,194.4-82.8,211.7c-1.9,23.1,148.2,134.7,498.5,369.6c275.2,184.8,504.3,336.8,510.1,336.8C8932.3,2351,8972.7,2283.7,9017,2200.9z M2455.4-1956.6c144.4-180.9,317.6-352.2,517.8-508.1c67.4-53.9,121.3-103.9,117.4-111.6c-21.2-53.9-664-1000.9-681.4-1000.9c-36.6,0-359.9,269.5-571.7,477.3c-207.9,204-533.2,589-533.2,627.5c1.9,19.2,972,681.4,1002.8,683.3C2314.9-1787.2,2380.4-1864.2,2455.4-1956.6z M8202.8-2124.1c269.5-179,492.7-336.8,492.7-346.5c0-42.4-267.5-358-508.1-598.6c-240.6-240.6-556.2-508.1-598.6-508.1c-15.4,0-660.2,948.9-679.4,1000.9c-3.8,7.7,53.9,59.7,125.1,115.5c167.5,130.9,413.8,377.2,544.7,544.7c55.8,71.2,107.8,129,115.5,125.1C7702.4-1794.9,7931.4-1943.1,8202.8-2124.1z M3687.3-2882.4c498.5-219.4,1102.9-311.8,1655.3-250.2c363.8,38.5,735.3,140.5,1049,282.9c88.5,38.5,155.9,59.7,165.5,50.1c32.7-34.7,677.5-1012.4,671.7-1016.3c-40.4-30.8-256-140.5-398.4-204c-610.1-267.5-1170.3-385-1830.4-385c-644.8,0-1160.6,103.9-1768.9,359.9c-157.8,65.4-419.6,194.4-460,227.1c-3.9,3.9,148.2,236.7,334.9,519.7c248.3,371.5,350.3,510.1,373.4,502.4C3494.8-2799.6,3589.1-2840.1,3687.3-2882.4z"/></g></g>
</svg>