<svg xmlns="http://www.w3.org/2000/svg" width="31.06" height="35.964" viewBox="0 0 31.06 35.964"><defs><style>.a{fill:#b4287e;}</style></defs><path class="a" d="M21.269,33.443a.772.772,0,0,0,.817-.817v-.817a2.452,2.452,0,1,0,0-4.9H20.452a.817.817,0,1,1,0-1.635H22.9a.817.817,0,1,0,0-1.635h-.817v-.817a.817.817,0,0,0-1.635,0v.817a2.452,2.452,0,1,0,0,4.9h1.635a.817.817,0,1,1,0,1.635H19.635a.817.817,0,0,0,0,1.635h.817v.817A.772.772,0,0,0,21.269,33.443Z" transform="translate(-5.739 -4.018)"/><path class="a" d="M30.382,20.291l-5.558-6.049A.811.811,0,1,0,23.6,15.305l5.558,6.049a12.43,12.43,0,0,1,3.188,8.255v4.822a2.408,2.408,0,0,1-2.452,2.452H7.087a2.408,2.408,0,0,1-2.452-2.452V29.691a12.123,12.123,0,0,1,3.188-8.255l5.313-5.8h7.847a.817.817,0,0,0,0-1.635H12.808a.742.742,0,0,0-.572.245L6.678,20.291A14.025,14.025,0,0,0,3,29.691v4.741a4.047,4.047,0,0,0,4.087,4.087H29.973a4.047,4.047,0,0,0,4.087-4.087V29.691A14.025,14.025,0,0,0,30.382,20.291Z" transform="translate(-3 -2.554)"/><path class="a" d="M13.715,5.967a.785.785,0,0,0,.736.572.3.3,0,0,0,.245-.082.818.818,0,0,0,.49-1.063L13.96,1.635H26.384L25.321,4.9h-7.6a.772.772,0,0,0-.817.817.772.772,0,0,0,.817.817h8.174a.785.785,0,0,0,.736-.572l1.635-4.9a.622.622,0,0,0-.082-.736A1.009,1.009,0,0,0,27.528,0H12.816a1.009,1.009,0,0,0-.654.327.622.622,0,0,0-.082.736Z" transform="translate(-4.642)"/><path class="a" d="M26.261,10H14.817a.817.817,0,1,0,0,1.635H26.261a.817.817,0,1,0,0-1.635Z" transform="translate(-5.009 -1.826)"/></svg>