<svg xmlns="http://www.w3.org/2000/svg" width="37.991" height="37.13" viewBox="0 0 37.991 37.13"><defs><style>.a{fill:;}</style></defs><circle class="a" cx="1.723" cy="1.723" r="1.723" transform="translate(25.931 17.23)"/><path class="a" d="M15.861,18.223H26.2a.861.861,0,0,0,0-1.723H15.861a.861.861,0,0,0,0,1.723Z" transform="translate(-1.992 -2.716)"/><path class="a" d="M37.371,18.591a1.3,1.3,0,0,1-1.206-.775,14.563,14.563,0,0,0-2.757-3.877L34.7,9.373a.879.879,0,0,0-.172-.775,1.064,1.064,0,0,0-.689-.345,6.907,6.907,0,0,0-5.686,2.326c-.689-.258-1.465-.517-2.24-.775a6.066,6.066,0,0,0,.948-3.274,6.03,6.03,0,1,0-12.061,0,5.993,5.993,0,0,0,6.03,6.03,5.845,5.845,0,0,0,3.791-1.378,17.047,17.047,0,0,1,3.36,1.206.822.822,0,0,0,1.034-.258,5.057,5.057,0,0,1,3.532-2.068l-1.12,3.963a.78.78,0,0,0,.258.861,11.252,11.252,0,0,1,2.757,3.7A2.926,2.926,0,0,0,37.2,20.314a.814.814,0,0,1,.861.861v3.446a.814.814,0,0,1-.861.861H35.734a.782.782,0,0,0-.6.258,7.959,7.959,0,0,1-1.206,1.206,16.833,16.833,0,0,0-1.637,1.723A8.1,8.1,0,0,0,30.307,34.1v.861a.814.814,0,0,1-.861.861H27.722a.814.814,0,0,1-.861-.861V33.323a.861.861,0,0,0-1.723,0v1.637a2.538,2.538,0,0,0,2.584,2.584h1.723a2.538,2.538,0,0,0,2.584-2.584V34.1A6.3,6.3,0,0,1,33.58,29.79c.689-.775,1.12-1.206,1.551-1.637a9.827,9.827,0,0,0,.948-.948h1.292a2.538,2.538,0,0,0,2.584-2.584V21.176A2.538,2.538,0,0,0,37.371,18.591ZM16.7,6.53a4.307,4.307,0,0,1,8.615,0,4.307,4.307,0,0,1-8.615,0Z" transform="translate(-1.964 -0.5)"/><path class="a" d="M20.92,34.754a18.13,18.13,0,0,1-7.753-.861.837.837,0,0,0-.775.086,1.064,1.064,0,0,0-.345.689v1.9a.814.814,0,0,1-.861.861H9.462a.814.814,0,0,1-.861-.861V34.582A7.985,7.985,0,0,0,6.792,29.5c-.258-.258-.517-.6-.775-.861A9.232,9.232,0,0,1,4.552,26.57,7.116,7.116,0,0,1,4.294,24.5c0-4.566,3.1-8.7,8.1-10.769a.848.848,0,1,0-.689-1.551c-5.255,2.154-8.615,6.461-9.132,11.285a1.776,1.776,0,0,1-.948-1.551.814.814,0,0,0-.861-.861.814.814,0,0,0-.861.861,3.514,3.514,0,0,0,2.584,3.36,6.13,6.13,0,0,0,.431,1.9,9.011,9.011,0,0,0,1.723,2.584,9.155,9.155,0,0,1,.775.948,6.7,6.7,0,0,1,1.378,3.963V36.65a2.538,2.538,0,0,0,2.584,2.584H11.1a2.538,2.538,0,0,0,2.584-2.584V35.96a19.393,19.393,0,0,0,7.409.6,1.009,1.009,0,0,0,.775-.948A.8.8,0,0,0,20.92,34.754Z" transform="translate(0.1 -2.104)"/><path class="a" d="M22.584,7.946V5.361a.814.814,0,0,0-.861-.861h-.861A.814.814,0,0,0,20,5.361a.814.814,0,0,0,.861.861V7.946A.814.814,0,0,0,20,8.807a.814.814,0,0,0,.861.861h1.723a.814.814,0,0,0,.861-.861A.814.814,0,0,0,22.584,7.946Z" transform="translate(-2.684 -1.054)"/></svg>